<?xml version="1.0" encoding="UTF-8" standalone="no"?>
<svg
   fill="none"
   viewBox="0 0 34 34"
   stroke-width="1.5"
   stroke="currentColor"
   version="1.1"
   id="svg4"
   width="34"
   height="34"
   xmlns:sodipodi="http://sodipodi.sourceforge.net/DTD/sodipodi-0.dtd"
   xmlns:xlink="http://www.w3.org/1999/xlink"
   xmlns="http://www.w3.org/2000/svg"
   xmlns:svg="http://www.w3.org/2000/svg">
  <defs
     id="defs8">
    <linearGradient
       id="linearGradient3412">
      <stop
         style="stop-color:#c026d3;stop-opacity:1"
         offset="0"
         id="stop3408" />
      <stop
         style="stop-color:#1d4ed8;stop-opacity:1"
         offset="1"
         id="stop3410" />
    </linearGradient>
    <linearGradient
       xlink:href="#linearGradient3412"
       id="linearGradient3414"
       x1="2.280134"
       y1="9.8798199"
       x2="21.737967"
       y2="15.521115"
       gradientUnits="userSpaceOnUse"
       gradientTransform="translate(5,5)" />
  </defs>
  <sodipodi:namedview
     id="namedview6"
     pagecolor="#ffffff"
     bordercolor="#666666"
     borderopacity="1.0"
     showgrid="false"
     width="25px"
     scale-x="1" />
  <circle
     style="fill:#e5e7eb;fill-opacity:1;stroke:none;stroke-width:0.0980825;stroke-miterlimit:4;stroke-dasharray:none;stroke-opacity:1"
     id="path847"
     cx="17"
     cy="17"
     r="13.950959" />
  <path
     stroke-linecap="round"
     stroke-linejoin="round"
     d="m 17,12.5 h 1.5 m -1.5,3 h 1.5 m -7.5,3 h 7.5 m -7.5,3 h 7.5 m 3,-9 h 3.375 C 25.496,12.5 26,13.004 26,13.625 V 23 a 2.25,2.25 0 0 1 -2.25,2.25 M 21.5,12.5 V 23 a 2.25,2.25 0 0 0 2.25,2.25 M 21.5,12.5 V 9.875 C 21.5,9.254 20.996,8.75 20.375,8.75 H 9.125 C 8.504,8.75 8,9.254 8,9.875 V 23 a 2.25,2.25 0 0 0 2.25,2.25 h 13.5 M 11,12.5 h 3 v 3 h -3 z"
     id="path2"
     style="stroke:url(#linearGradient3414)" />
</svg>
